<svg width="634" height="116" viewBox="0 0 634 116" fill="none" xmlns="http://www.w3.org/2000/svg">
<g filter="url(#filter0_d_2_907)">
<path d="M49.5148 51.484H66.7659V61.4538H49.5148V51.484ZM50.4109 74H37.1926V34.793H69.0623V44.7628H50.4109V74ZM79.6792 74V34.793H92.8976V63.7502H110.597V74H79.6792ZM132.787 49.3556H150.262V58.8773H132.787V49.3556ZM133.683 64.0302H153.287V74H120.689V34.793H152.559V44.7628H133.683V64.0302ZM176.915 49.3556H194.39V58.8773H176.915V49.3556ZM177.811 64.0302H197.414V74H164.817V34.793H196.686V44.7628H177.811V64.0302ZM217.458 74V45.0428H205.976V34.793H242.158V45.0428H230.676V74H217.458ZM283.779 74V45.0428H272.297V34.793H308.48V45.0428H296.998V74H283.779ZM318.354 74V34.793H337.229C340.889 34.793 344.044 35.3904 346.695 36.5853C349.384 37.7802 351.456 39.4978 352.912 41.7382C354.368 43.9413 355.097 46.5551 355.097 49.5796C355.097 52.6042 354.368 55.218 352.912 57.421C351.456 59.5868 349.384 61.2484 346.695 62.4059C344.044 63.5635 340.889 64.1422 337.229 64.1422H325.691L331.572 58.7093V74H318.354ZM341.822 74L332.188 59.7174H346.191L355.937 74H341.822ZM331.572 60.1655L325.691 54.1725H336.389C338.219 54.1725 339.563 53.7617 340.422 52.9402C341.318 52.1188 341.766 50.9986 341.766 49.5796C341.766 48.1607 341.318 47.0405 340.422 46.219C339.563 45.3976 338.219 44.9868 336.389 44.9868H325.691L331.572 38.9938V60.1655ZM362.272 74L379.411 34.793H392.406L409.545 74H395.878L383.22 41.0661H388.373L375.715 74H362.272ZM372.466 67.1668L375.827 57.6451H393.862L397.223 67.1668H372.466ZM437.824 74.8962C434.688 74.8962 431.775 74.4107 429.087 73.4399C426.436 72.4317 424.12 71.0128 422.141 69.1831C420.2 67.3535 418.687 65.1878 417.605 62.686C416.522 60.1842 415.98 57.421 415.98 54.3965C415.98 51.372 416.522 48.6088 417.605 46.107C418.687 43.6052 420.2 41.4395 422.141 39.6099C424.12 37.7802 426.436 36.3799 429.087 35.4091C431.775 34.4009 434.688 33.8968 437.824 33.8968C441.67 33.8968 445.068 34.569 448.018 35.9132C451.005 37.2574 453.47 39.1991 455.411 41.7382L447.066 49.1876C445.908 47.7313 444.62 46.6111 443.201 45.827C441.82 45.0055 440.251 44.5947 438.496 44.5947C437.115 44.5947 435.864 44.8188 434.744 45.2669C433.623 45.7149 432.653 46.3684 431.831 47.2272C431.047 48.086 430.431 49.1316 429.983 50.3638C429.535 51.5587 429.311 52.9029 429.311 54.3965C429.311 55.8901 429.535 57.253 429.983 58.4852C430.431 59.6801 431.047 60.707 431.831 61.5658C432.653 62.4246 433.623 63.078 434.744 63.5261C435.864 63.9742 437.115 64.1982 438.496 64.1982C440.251 64.1982 441.82 63.8062 443.201 63.022C444.62 62.2006 445.908 61.0617 447.066 59.6054L455.411 67.0548C453.47 69.5565 451.005 71.4982 448.018 72.8798C445.068 74.224 441.67 74.8962 437.824 74.8962ZM477.487 65.5985L476.759 51.0919L491.546 34.793H505.94L489.361 53.0523L482.024 60.5576L477.487 65.5985ZM465.669 74V34.793H478.663V74H465.669ZM491.434 74L479.896 58.7653L488.465 49.6917L506.724 74H491.434ZM527.036 49.3556H544.511V58.8773H527.036V49.3556ZM527.932 64.0302H547.536V74H514.938V34.793H546.808V44.7628H527.932V64.0302ZM559.066 74V34.793H577.941C581.6 34.793 584.756 35.3904 587.407 36.5853C590.095 37.7802 592.168 39.4978 593.624 41.7382C595.08 43.9413 595.808 46.5551 595.808 49.5796C595.808 52.6042 595.08 55.218 593.624 57.421C592.168 59.5868 590.095 61.2484 587.407 62.4059C584.756 63.5635 581.6 64.1422 577.941 64.1422H566.403L572.284 58.7093V74H559.066ZM582.534 74L572.9 59.7174H586.903L596.648 74H582.534ZM572.284 60.1655L566.403 54.1725H577.101C578.931 54.1725 580.275 53.7617 581.134 52.9402C582.03 52.1188 582.478 50.9986 582.478 49.5796C582.478 48.1607 582.03 47.0405 581.134 46.219C580.275 45.3976 578.931 44.9868 577.101 44.9868H566.403L572.284 38.9938V60.1655Z" fill="#24E2FF"/>
</g>
<defs>
<filter id="filter0_d_2_907" x="0.192627" y="0.896851" width="633.456" height="114.999" filterUnits="userSpaceOnUse" color-interpolation-filters="sRGB">
<feFlood flood-opacity="0" result="BackgroundImageFix"/>
<feColorMatrix in="SourceAlpha" type="matrix" values="0 0 0 0 0 0 0 0 0 0 0 0 0 0 0 0 0 0 127 0" result="hardAlpha"/>
<feOffset dy="4"/>
<feGaussianBlur stdDeviation="18.5"/>
<feComposite in2="hardAlpha" operator="out"/>
<feColorMatrix type="matrix" values="0 0 0 0 1 0 0 0 0 1 0 0 0 0 1 0 0 0 0.25 0"/>
<feBlend mode="normal" in2="BackgroundImageFix" result="effect1_dropShadow_2_907"/>
<feBlend mode="normal" in="SourceGraphic" in2="effect1_dropShadow_2_907" result="shape"/>
</filter>
</defs>
</svg>
